<svg version="1.1" xmlns="http://www.w3.org/2000/svg" xmlns:xlink="http://www.w3.org/1999/xlink" width="268.51891" height="34.97909" viewBox="0,0,268.51891,34.97909"><g transform="translate(-89.21291,-162.79566)"><g data-paper-data="{&quot;isPaintingLayer&quot;:true}" fill-rule="nonzero" stroke="none" stroke-linecap="butt" stroke-linejoin="miter" stroke-miterlimit="10" stroke-dasharray="" stroke-dashoffset="0" style="mix-blend-mode: normal"><path d="M166.00307,181.93932c-0.80442,-1.7637 0.41374,-4.30982 0.41374,-4.30982l0.53855,0.1364c0,0 -1.01533,2.66571 -0.51889,3.67903c0.9568,1.95299 3.02182,2.85302 3.02182,2.85302c0,0 -0.2354,0.11291 -0.59763,0.0021c-1.02578,-0.31379 -2.2631,-1.0573 -2.85759,-2.36072z" fill="#494949" stroke-width="0"/><path d="M158.77965,166.83334v-3h193.66667v3z" fill="#494949" stroke-width="0"/><path d="M176.42596,190.19534l-0.65666,-9.9994l29.86308,-1.9611l-0.15586,8.78064z" fill="#494949" stroke-width="0"/><path d="M99.41949,189.85707v-24.03672h152.00684v11.172l-42.20478,-0.22132c0,0 -7.5843,4.20258 -13.22727,5.09948c-5.76611,0.91646 -20.92462,0.34187 -20.92462,0.34187c0,0 1.32874,2.93662 -5.14527,3.1383c-10.07279,0.31378 -7.22213,-1.54534 -8.0177,-2.27658c-5.44363,-5.00338 -1.28514,15.30551 -5.25475,14.68678c-14.7173,-2.29393 -8.33007,-1.98377 -20.3983,-6.63166c-4.76084,-1.83356 -2.81591,-4.5485 -8.73427,-4.68393c-12.74277,-0.2916 -24.03732,0.02633 -24.03732,0.02633v3.38546zM145.77017,189.2099c1.30882,0 13.20327,5.43907 6.83862,-13.60952c-0.41477,-1.24135 -4.0402,-3.04691 -5.34902,-3.04691c-1.30882,0 -12.90564,-0.24468 -13.4741,7.78654c-0.26082,3.68491 10.67568,8.86988 11.9845,8.86988zM162.62572,183.5037c-0.21372,1.05223 2.75665,1.40253 5.79783,1.32997c3.0376,-0.07247 6.14585,-0.56648 6.22248,-1.7585c0.19292,-3.00096 -0.20182,-5.16147 -6.78061,-4.85403c-5.24452,0.24509 -5.22827,1.67117 -5.2397,5.28256z" fill="#7c9521" stroke-width="NaN"/><path d="M141.02986,173.16285v-7.31258h5.82298v7.31258z" fill="#494949" stroke-width="0"/><path d="M89.56867,191.17346c0.7898,-12.62186 -0.79215,-19.45163 -0.23342,-23.69091c0.16613,-1.2605 0.23342,-2.30937 0.23342,-2.30937h12.32305v24.78151h-7.98967c0,0 -4.33633,1.26588 -4.33338,1.21877z" fill="#494949" stroke-width="0"/><path d="M101.38651,166.12111l1.21877,-1.89585l26.54195,0.13542v1.76044z" fill="#494949" stroke-width="0"/><path d="M347.38272,167.83038v-5.03472h5.33333v0.80555l5,-0.11111l0.01577,3.599l-5.01577,-0.04344v0.78472zM354.93103,166.47931l0.66033,0.00725l0.00634,-2.37319l-0.69384,0.00362z" fill="#616161" stroke-width="0"/><path d="M111.36159,168.98123c0,0.2934 -0.20987,0.53125 -0.46875,0.53125c-0.25888,0 -0.46875,-0.23785 -0.46875,-0.53125c0,-0.2934 0.20987,-0.53125 0.46875,-0.53125c0.25888,0 0.46875,0.23785 0.46875,0.53125z" fill="#494949" stroke-width="0"/><path d="M113.54909,168.98123c0,0.2934 -0.23785,0.53125 -0.53125,0.53125c-0.2934,0 -0.53125,-0.23785 -0.53125,-0.53125c0,-0.2934 0.23785,-0.53125 0.53125,-0.53125c0.2934,0 0.53125,0.23785 0.53125,0.53125z" fill="#494949" stroke-width="0"/><path d="M105.11159,184.69998c0,0.34518 -0.26583,0.625 -0.59375,0.625c-0.32792,0 -0.59375,-0.27982 -0.59375,-0.625c0,-0.34518 0.26583,-0.625 0.59375,-0.625c0.32792,0 0.59375,0.27982 0.59375,0.625z" fill="#494949" stroke-width="0"/><path d="M125.72058,184.01248c0,0.31066 -0.23785,0.5625 -0.53125,0.5625c-0.2934,0 -0.53125,-0.25184 -0.53125,-0.5625c0,-0.31066 0.23785,-0.5625 0.53125,-0.5625c0.2934,0 0.53125,0.25184 0.53125,0.5625z" fill="#494949" stroke-width="0"/><path d="M156.50049,194.53338c0,0.31066 -0.25184,0.5625 -0.5625,0.5625c-0.31066,0 -0.5625,-0.25184 -0.5625,-0.5625c0,-0.31066 0.25184,-0.5625 0.5625,-0.5625c0.31066,0 0.5625,0.25184 0.5625,0.5625z" fill="#494949" stroke-width="0"/><path d="M139.93799,169.18963c0,0.2934 -0.25184,0.53125 -0.5625,0.53125c-0.31066,0 -0.5625,-0.23785 -0.5625,-0.53125c0,-0.2934 0.25184,-0.53125 0.5625,-0.53125c0.31066,0 0.5625,0.23785 0.5625,0.53125z" fill="#494949" stroke-width="0"/><path d="M148.50049,169.22088c0,0.31066 -0.23785,0.5625 -0.53125,0.5625c-0.2934,0 -0.53125,-0.25184 -0.53125,-0.5625c0,-0.31066 0.23785,-0.5625 0.53125,-0.5625c0.2934,0 0.53125,0.25184 0.53125,0.5625z" fill="#494949" stroke-width="0"/><path d="M144.43799,169.40838c0,0.31066 -0.25184,0.5625 -0.5625,0.5625c-0.31066,0 -0.5625,-0.25184 -0.5625,-0.5625c0,-0.31066 0.25184,-0.5625 0.5625,-0.5625c0.31066,0 0.5625,0.25184 0.5625,0.5625z" fill="#8c8c8c" stroke-width="0"/><path d="M168.01332,174.30365c0,0.31066 -0.25184,0.5625 -0.5625,0.5625c-0.31066,0 -0.5625,-0.25184 -0.5625,-0.5625c0,-0.31066 0.25184,-0.5625 0.5625,-0.5625c0.31066,0 0.5625,0.25184 0.5625,0.5625z" fill="#494949" stroke-width="0"/><path d="M176.42905,175.35714c0,0.31066 -0.26583,0.5625 -0.59375,0.5625c-0.32792,0 -0.59375,-0.25184 -0.59375,-0.5625c0,-0.31066 0.26583,-0.5625 0.59375,-0.5625c0.32792,0 0.59375,0.25184 0.59375,0.5625z" fill="#494949" stroke-width="0"/><path d="M209.17905,174.16964c0,0.31066 -0.26583,0.5625 -0.59375,0.5625c-0.32792,0 -0.59375,-0.25184 -0.59375,-0.5625c0,-0.31066 0.26583,-0.5625 0.59375,-0.5625c0.32792,0 0.59375,0.25184 0.59375,0.5625z" fill="#494949" stroke-width="0"/><path d="M225.30405,174.04464c0,0.31066 -0.26583,0.5625 -0.59375,0.5625c-0.32792,0 -0.59375,-0.25184 -0.59375,-0.5625c0,-0.31066 0.26583,-0.5625 0.59375,-0.5625c0.32792,0 0.59375,0.25184 0.59375,0.5625z" fill="#494949" stroke-width="0"/><path d="M242.30405,174.48214c0,0.31066 -0.26583,0.5625 -0.59375,0.5625c-0.32792,0 -0.59375,-0.25184 -0.59375,-0.5625c0,-0.31066 0.26583,-0.5625 0.59375,-0.5625c0.32792,0 0.59375,0.25184 0.59375,0.5625z" fill="#494949" stroke-width="0"/><path d="M250.50051,172.04464c0,0.75939 -0.65758,1.375 -1.46875,1.375c-0.81117,0 -1.46875,-0.61561 -1.46875,-1.375c0,-0.75939 0.65758,-1.375 1.46875,-1.375c0.81117,0 1.46875,0.61561 1.46875,1.375z" fill="#494949" stroke-width="0"/></g></g></svg>