<svg version="1.1" xmlns="http://www.w3.org/2000/svg" xmlns:xlink="http://www.w3.org/1999/xlink" width="157.3266" height="41.09274" viewBox="0,0,157.3266,41.09274"><g transform="translate(-161.33671,-157.49122)"><g data-paper-data="{&quot;isPaintingLayer&quot;:true}" fill-rule="nonzero" stroke-linejoin="miter" stroke-miterlimit="10" stroke-dasharray="" stroke-dashoffset="0" style="mix-blend-mode: normal"><path d="M232.1807,166.90513v-4.02649l0.30507,-0.78579l0.01099,-2.91778l-0.28437,-0.03265l-0.0317,-1.6512h4.14869l-0.08716,1.60814l-0.26149,0.07484l0.03167,2.91594l0.31699,0.82593v3.98907z" fill="#2b2b2b" stroke="none" stroke-width="0" stroke-linecap="butt"/><path d="M221.59323,171.68659v-1.9545l6.63734,0.07667l0.09239,-7.30832l2.76955,-0.13659l0.01402,5.2089l6.16267,0.0512l0.21198,-4.61292l2.59946,0.01965l0.07325,6.63833l6.92818,-0.09489v1.9545z" fill="#404040" stroke="none" stroke-width="0" stroke-linecap="butt"/><path d="M214.99329,167.86821l0.14817,-7.11203l8.13798,0.15097l1.76407,1.29473l17.21154,0.2906l10.37066,-2.46492l5.48427,-0.16038l0.14817,9.33454h-5.48219l-10.66805,-2.51884l-17.19653,-0.46807l-1.61677,1.45486z" fill="#1a1a1a" stroke="none" stroke-width="0" stroke-linecap="butt"/><path d="M235.22376,163.84072c0,0.56527 -0.45824,1.0235 -1.0235,1.0235c-0.56527,0 -1.0235,-0.45824 -1.0235,-1.0235c0,-0.56527 0.45824,-1.0235 1.0235,-1.0235c0.56527,0 1.0235,0.45824 1.0235,1.0235z" fill="#969696" stroke="none" stroke-width="0" stroke-linecap="butt"/><path d="M217.55337,171.80619l99.85994,0.38889" fill="none" stroke="#000000" stroke-width="2.5" stroke-linecap="round"/><path d="M223.55337,186.83396v-8.33333l16.33334,-1.66667l-0.22217,9.03717z" fill="#383838" stroke="none" stroke-width="0" stroke-linecap="butt"/><path d="M218.93113,178.27627c0,0 -0.91906,3.07722 -1.9049,3.85984c-1.49123,1.18382 -8.22387,2.17453 -8.55453,1.3446c-0.39692,-0.99623 0.18175,-4.41624 0.18175,-4.41624" fill="none" stroke="#000000" stroke-width="1.5" stroke-linecap="round"/><path d="M166.67443,197.73391l-4.01039,-19.73505c0,0 20.08716,-3.81409 29.37042,-3.16675c3.71309,0.25892 7.45914,4.71927 9.37224,2.14964c4.61341,-6.1966 22.41977,-4.67243 22.41977,-4.67243l40.9386,0.3624l-0.08195,4.99932c0,0 -50.32288,1.01237 -52.62082,1.11421c-6.24008,0.27653 -10.55771,2.57944 -12.75722,9.77294c-0.1438,0.47027 -7.96589,-0.58137 -7.96589,-0.58137l0.45165,-1.94113z" fill="#ce7700" stroke="none" stroke-width="0" stroke-linecap="butt"/><path d="M163.08671,179.50063l3.15152,17.33333" fill="none" stroke="#383838" stroke-width="3.5" stroke-linecap="round"/></g></g></svg>