<svg version="1.1" xmlns="http://www.w3.org/2000/svg" xmlns:xlink="http://www.w3.org/1999/xlink" width="133.66887" height="39.54497" viewBox="0,0,133.66887,39.54497"><g transform="translate(-172.98309,-165.61278)"><g data-paper-data="{&quot;isPaintingLayer&quot;:true}" fill="none" fill-rule="nonzero" stroke="none" stroke-width="none" stroke-linecap="none" stroke-linejoin="miter" stroke-miterlimit="10" stroke-dasharray="" stroke-dashoffset="0" font-family="none" font-weight="none" font-size="none" text-anchor="none" style="mix-blend-mode: normal"><path d="M252.70453,170.25415l51.64454,0.27521" data-paper-data="{&quot;origPos&quot;:null,&quot;origRot&quot;:0}" fill="none" stroke="#494949" stroke-width="4" stroke-linecap="round"/><path d="M240.42691,205.15776v-34.60633h5.35617v34.60634z" data-paper-data="{&quot;origPos&quot;:null}" fill="#424242" stroke="none" stroke-width="0" stroke-linecap="butt"/><path d="M205.5,175.66666v-7.82618h2.24627l0.59701,-2.14398l6.08466,-0.00798l0.43413,1.95844l22.76288,-0.24381l-0.02157,-1.76604l0.8126,-0.02432l0.12738,1.79988l15.45663,0.42781v7.82618l-8.353,0.00346l0.04947,-5.08222l-5.26955,0.01993v5.05882z" data-paper-data="{&quot;origPos&quot;:null}" fill="#535353" stroke="none" stroke-width="0" stroke-linecap="butt"/><path d="M175.35431,198.21109c-2.18088,-0.32812 0.65924,-10.17716 -2.30252,-15.30614c-1.55784,-2.69776 23.88832,-7.14793 24.56099,-7.23925c2.32219,-0.31524 0.01179,1.11698 2.35527,1.10877c1.37726,-0.00483 4.23494,-1.30649 4.23494,-1.30649l11.12899,0.11765c0,0 -0.73685,4.52727 -0.92436,4.58345c-1.91003,0.57234 -9.49103,2.93635 -14.33481,3.75011c-8.73155,1.46691 -18.5806,15.21537 -24.71848,14.2919z" data-paper-data="{&quot;origPos&quot;:null}" fill="#c07300" stroke="none" stroke-width="0" stroke-linecap="butt"/><path d="M222.28311,175.5755h18.27767v2.21718l-16.8,-0.07645z" data-paper-data="{&quot;origPos&quot;:null}" fill="#7c7c7c" stroke="none" stroke-width="0" stroke-linecap="butt"/><path d="M235.52557,182.59321l-0.03584,-0.37065c0,0 3.59183,0.66169 3.53488,-1.95047c-0.05963,-2.73523 -3.49408,-2.23684 -3.49408,-2.23684l-0.00496,-0.39377l5.03521,0.07737v5.0291z" data-paper-data="{&quot;origPos&quot;:null}" fill="#7c7c7c" stroke="none" stroke-width="0" stroke-linecap="butt"/><path d="M232.18616,182.4801l-1.25,-4.76125l4.85663,-0.07737l-0.00496,0.39377c0,0 -3.70231,-0.67696 -3.76194,2.05827c-0.05695,2.61216 3.80274,2.12904 3.80274,2.12904l-0.03584,0.37065z" data-paper-data="{&quot;origPos&quot;:null,&quot;index&quot;:null}" fill="#7c7c7c" stroke="none" stroke-width="0" stroke-linecap="butt"/><path d="M217.20919,193.10824c-1.13601,-4.68662 7.75645,-8.11869 6.62987,-15.47241c-0.00221,-0.01443 7.14286,0 7.14286,0l1.18867,4.64401c0,0 -1.84723,1.45024 -2.99178,2.69518c-1.15777,1.2593 -1.74375,1.76824 -2.45604,3.32352c-0.80059,1.74808 0.38873,3.85213 0.38873,3.85213c0,0 -2.08964,0.06735 -2.68851,1.64317c-0.48349,1.27221 0.06445,2.73392 0.06445,2.73392c0,0 -1.55887,0.36451 -2.52011,0.08467c-0.7406,-0.21561 -4.38656,-1.97127 -4.75814,-3.5042z" data-paper-data="{&quot;origPos&quot;:null}" fill="#c07300" stroke="none" stroke-width="0" stroke-linecap="butt"/><path d="M296.68292,172.71379v-5.02811h0.73085l0.10286,-1.56958l0.84807,0.00035l0.1027,1.56923h8.18456v5.02811z" data-paper-data="{&quot;origPos&quot;:null}" fill="#494949" stroke="none" stroke-width="0" stroke-linecap="butt"/><path d="M265.84149,196.80291c0,0 -1.04273,-0.01745 -2.99603,-2.75203c-2.26123,-3.16567 -1.83422,-4.26948 -1.84152,-5.56557c-0.02342,-4.16173 2.84183,-4.48615 5.26034,-6.68662c0.5117,-0.46557 0.56853,-2.55725 0.06624,-3.96091c-1.37255,-3.83558 -12.35294,1.66667 -12.35294,1.66667v-5.88547h22.26686l0.00856,-0.97497l0.6247,-0.02736l0.04242,1.00233l5.20574,-0.13158c0,0 0.4063,1.4093 -0.08228,1.71709c-5.44651,3.43106 -4.29136,6.30774 -4.29136,6.30774c0,0 -2.04038,0.26366 -3.03107,1.47355c-0.75329,0.91996 -0.19862,3.36971 -0.19862,3.36971c0,0 -1.51715,0.28675 -2.14316,1.26155c-0.61236,0.95354 -0.35381,2.88278 -0.35381,2.88278c0,0 -0.73566,-0.47751 -1.74347,1.54938c-0.8317,1.6727 1.60693,4.69397 1.60693,4.69397c0,0 -0.90376,0.00408 -1.14534,0.0067c-0.72475,0.00784 -4.90217,0.05305 -4.90217,0.05305z" data-paper-data="{&quot;origPos&quot;:null}" fill="#c07300" stroke="none" stroke-width="0" stroke-linecap="butt"/></g></g></svg>