<svg version="1.1" xmlns="http://www.w3.org/2000/svg" xmlns:xlink="http://www.w3.org/1999/xlink" width="153.57614" height="54.45236"><g transform="translate(-173.2424,-158.85723)"><g data-paper-data="{&quot;isPaintingLayer&quot;:true}" fill="none" fill-rule="nonzero" stroke="none" stroke-width="none" stroke-linecap="none" stroke-linejoin="miter" stroke-miterlimit="10" stroke-dasharray="" stroke-dashoffset="0" font-family="none" font-weight="none" font-size="none" text-anchor="none" style="mix-blend-mode: normal"><path d="M248.70084,213.3096c0,0 -3.56439,-12.04052 -3.38828,-23.60043c0.00004,-0.00245 12.86595,-2.0409 12.86727,-1.84482c0.08767,13.03113 3.36582,22.3893 3.36582,22.3893z" data-paper-data="{&quot;origRot&quot;:0,&quot;origPos&quot;:null}" fill="#4b4b4b" stroke="none" stroke-width="0" stroke-linecap="butt"/><path d="M190.35095,175.42162c0,0 0.17766,-1.92043 0.2711,-1.92019c12.7472,0.03271 18.88067,0.05842 24.44358,-4.80237c0.08564,-0.05629 4.7053,-0.03744 4.7053,-0.03744l-2.54858,6.76z" data-paper-data="{&quot;origPos&quot;:null}" fill="#4b4b4b" stroke="none" stroke-width="0" stroke-linecap="butt"/><path d="M220.39221,163.11659v-3.70904l19.66692,0.0608l-1.21608,3.64823h-15.20098l-1.68281,1.92539l-0.89821,-0.04047v-1.88492z" data-paper-data="{&quot;origPos&quot;:null}" fill="#4b4b4b" stroke="none" stroke-width="0" stroke-linecap="butt"/><path d="M173.24241,202.6366c0,0 4.3888,-13.61356 0.09075,-29.64975c-0.03307,-0.12338 -0.22172,-0.72481 0.40984,-0.76826c0.38229,-0.0263 1.3178,1.84279 6.98298,1.739c0.24406,-0.00085 -1.3447,28.58401 -1.3447,28.58401z" data-paper-data="{&quot;origPos&quot;:null}" fill="#4b4b4b" stroke="none" stroke-width="0" stroke-linecap="butt"/><path d="M239.2665,171.54463l0.20966,-1.78219l30.61162,0.3145l0.629,1.46768z" data-paper-data="{&quot;origPos&quot;:null}" fill="#4b4b4b" stroke="none" stroke-width="0" stroke-linecap="butt"/><path d="M232.41794,192.24045c0,0 -1.54911,-1.25312 -1.38654,-3.44157c0.12942,-1.74206 0.625,-2.11466 0.60705,-2.36599c-0.03159,-0.44227 -0.53984,-0.55965 -0.53984,-0.55965l2.5813,-0.28681c0,0 -1.83559,2.009 -1.83559,3.44173c0,1.18647 0.74571,3.26964 0.74571,3.26964z" data-paper-data="{&quot;origPos&quot;:null}" fill="#4b4b4b" stroke="none" stroke-width="0" stroke-linecap="butt"/><path d="M210.73937,207.50287c1.53434,-0.79192 3.15064,-3.87352 3.15064,-3.87352l6.83646,3.59823c0,0 0.44511,0.03752 0.45265,0.38206c0.00755,0.34455 -2.34684,2.41959 -2.34684,2.41959c0,0 -10.32223,-1.37574 -8.09291,-2.52636z" data-paper-data="{&quot;origPos&quot;:null}" fill="#4b4b4b" stroke="none" stroke-width="0" stroke-linecap="butt"/><path d="M309.5465,179.27667v-3.72083h17.27205v1.08902l-7.93837,0.18151l0.73309,0.47932l7.20528,-0.11631v2.0873z" data-paper-data="{&quot;origPos&quot;:null}" fill="#4b4b4b" stroke="none" stroke-width="0" stroke-linecap="butt"/><path d="M213.76375,203.83227c6.7138,-14.57335 10.12709,-19.34004 4.10991,-20.05667c-5.03162,-0.42983 -25.02552,0.0833 -25.02552,0.0833l-0.32489,-0.83847l-8.5049,0.075l-4.57684,17.99378c0,0 -3.84891,-17.22092 -2.20907,-24.17379c0.41902,-1.77665 3.05749,-0.91991 3.05749,-0.91991l-0.09566,-2.09333l10.40897,-0.15184l0.64004,1.6001l25.37453,-0.32002l5.12033,-10.56068l0.00865,-5.54225l15.85107,0.073l0.02332,4.39907c2.91645,-0.08334 24.27467,-0.57359 47.1835,2.1544c7.33004,0.46033 23.86188,5.81905 24.93911,6.59627c3.25094,2.34553 5.12033,10.24065 5.12033,10.24065c0,0 -43.11038,1.3407 -54.41087,1.30589c-3.14153,-0.00968 -1.65829,4.504 -1.65829,4.504l-15.96535,2.30808l-0.22018,-4.96644l-11.38015,0.41953c0,0 -1.91884,-0.07372 -2.89915,2.56674c-1.05536,2.84258 0.26803,2.80924 -0.3161,4.00275c-1.75239,3.58052 -7.21492,14.74171 -7.21492,14.74171c0,0 -7.06442,-3.37781 -7.03536,-3.44087zM237.6273,164.5551l2.65561,6.39855c0,0 31.47353,0.51669 32.65751,0.26611c5.14867,-1.08964 2.90157,-4.99093 2.66502,-5.11394c-2.91542,-1.51605 -34.76594,-1.60478 -37.97846,-1.60988zM282.98424,171.63777c1.31768,0 2.04851,0.01828 3.31591,-0.05538c0.29242,-0.01699 0.6778,-0.41175 0.6778,-0.70467c0,-0.39617 -0.29113,-0.72054 -0.68701,-0.73581c-1.32886,-0.05128 -2.09227,-0.02424 -3.3067,-0.02424c-0.41977,0 -0.76005,0.34028 -0.76005,0.76005c0,0.41977 0.34028,0.76005 0.76005,0.76005zM288.64042,171.63777c1.19973,0 2.08101,0.01823 3.05558,-0.03159c0.30779,-0.01573 0.69254,-0.38553 0.69254,-0.69372c0,-0.34681 -0.28237,-0.6685 -0.62754,-0.70218c-1.07202,-0.10461 -1.93864,-0.09261 -3.12058,-0.09261c-0.41977,0 -0.76005,0.34028 -0.76005,0.76005c0,0.41977 0.34028,0.76005 0.76005,0.76005zM277.32806,171.49637c1.26286,0 2.09201,-0.03092 3.29404,-0.03549c0.40073,-0.00152 0.81554,-0.31321 0.81554,-0.71395c0,-0.48141 -0.35953,-0.73359 -0.84058,-0.75247c-1.24539,-0.04888 -2.05298,-0.0182 -3.26899,-0.0182c-0.41977,0 -0.76005,0.34028 -0.76005,0.76005c0,0.41977 0.34028,0.76005 0.76005,0.76005zM294.15519,171.77918c1.19519,0 1.83248,0.05485 3.04102,0.00344c0.42496,-0.01808 0.98507,-0.30341 0.98507,-0.72874c0,-0.38855 -0.50008,-0.62054 -0.88694,-0.65674c-1.20758,-0.11299 -1.9023,-0.13806 -3.13915,-0.13806c-0.41977,0 -0.76005,0.34028 -0.76005,0.76005c0,0.41977 0.34028,0.76005 0.76005,0.76005z" data-paper-data="{&quot;origPos&quot;:null}" fill="#9b9b9b" stroke="none" stroke-width="0" stroke-linecap="butt"/><path d="M265.40493,183.67098c0,0 1.73653,-6.07353 1.92013,-6.08039c12.44865,-0.46565 14.71747,-0.55769 40.96263,0.32002c0.37883,0.01267 1.92012,4.52328 1.92012,4.52328z" data-paper-data="{&quot;origPos&quot;:null}" fill="#4b4b4b" stroke="none" stroke-width="0" stroke-linecap="butt"/><path d="M221.72314,163.75247v-4.89523h15.92238v4.89523z" data-paper-data="{&quot;origPos&quot;:null}" fill="#747474" stroke="none" stroke-width="0" stroke-linecap="butt"/><path d="M237.28513,178.74599v-2.73618h17.01127v2.17546l5.99666,-0.003l0.003,0.59985l-5.99966,-0.03614z" data-paper-data="{&quot;origPos&quot;:null}" fill="#4b4b4b" stroke="none" stroke-width="0" stroke-linecap="butt"/><path d="M242.79656,185.48951l0.11291,5.25081c0,0 -10.65971,2.88646 -12.55016,2.52443c-0.63015,-0.12068 -0.7048,-0.08204 -1.20004,-0.48994c-3.85535,-3.1754 1.77167,-7.16722 1.77167,-7.16722" data-paper-data="{&quot;origPos&quot;:null}" fill="none" stroke="#9b9b9b" stroke-width="1.5" stroke-linecap="round"/></g></g></svg>