<svg version="1.1" xmlns="http://www.w3.org/2000/svg" xmlns:xlink="http://www.w3.org/1999/xlink" width="119.68861" height="33.13139"><g transform="translate(-186.10706,-161.77302)"><g data-paper-data="{&quot;isPaintingLayer&quot;:true}" fill="none" fill-rule="nonzero" stroke="none" stroke-width="none" stroke-linecap="none" stroke-linejoin="miter" stroke-miterlimit="10" stroke-dasharray="" stroke-dashoffset="0" font-family="none" font-weight="none" font-size="none" text-anchor="none" style="mix-blend-mode: normal"><path d="M303.53259,171.31722l-28.63263,-0.1193" fill="none" stroke="#737373" stroke-width="0.5" stroke-linecap="round"/><path d="M304.79567,169.60647l-29.94731,-0.11091" fill="none" stroke="#737373" stroke-width="2" stroke-linecap="round"/><path d="M251.03372,172.85455v-5.5715h9.38118v-4.36068l13.75196,0.1946l0.64743,0.70627l0.21378,7.74439l-7.70036,1.03519l-8.47923,-0.00427l-6.7712,0.83513z" fill="#d35c00" stroke="none" stroke-width="0" stroke-linecap="butt"/><path d="M243.6187,194.90391c-12.19522,-8.42468 -12.10654,-22.45803 -12.10654,-22.45803h7.16735c0,0 -0.1715,10.13089 9.46947,17.38907c0.15942,0.12002 -4.44689,5.12658 -4.53028,5.06897z" fill="#646464" stroke="none" stroke-width="0" stroke-linecap="butt"/><path d="M229.81283,175.46001v-2.38865h1.40869v2.38865z" fill="#3c3c3c" stroke="none" stroke-width="0" stroke-linecap="butt"/><path d="M229.83207,170.339l-0.09881,5.23666l-0.39521,0.59283h-4.73068l-0.59283,-0.69164v-3.06296" fill="none" stroke="#3c3c3c" stroke-width="0.5" stroke-linecap="round"/><path d="M216.81803,174.19278v-3.9641h7.0473v3.9641z" fill="#a8a8a8" stroke="none" stroke-width="0" stroke-linecap="butt"/><path d="M212.60764,173.86706l-1.52382,-6.50593l3.744,-1.05565l1.8252,6.50593z" fill="#a8a8a8" stroke="none" stroke-width="0" stroke-linecap="butt"/><path d="M215.26847,173.12697l-2.08677,-3.44178l1.78787,-3.681l2.24813,-2.22744h35.07992l0.08383,-0.85218l8.20489,0.06254l0.093,4.71485l-8.55468,0.10481l0.17297,5.32019z" fill="#737373" stroke="#737373" stroke-width="0" stroke-linecap="butt"/><path d="M188.50634,183.79786l-2.39928,-14.74382l17.5268,-2.50166l1.74393,1.03305l5.84532,-0.21181l1.43957,6.48023z" fill="#d35c00" stroke="none" stroke-width="0" stroke-linecap="butt"/><path d="M214.1737,186.51455c0,0 3.48871,-9.70712 3.59627,-9.94748c0.58684,-1.31118 -0.95196,-2.35692 -0.95196,-2.35692h7.0473l-3.40462,10.87172c0,0 0.5365,2.99934 0.33721,3.09616c-3.7632,1.82818 -6.6242,-1.66349 -6.6242,-1.66349z" fill="#d35c00" stroke="#000000" stroke-width="0" stroke-linecap="butt"/><path d="M285.6372,171.43652v-4.29489h7.39676v4.29489z" fill="#5c5c5c" stroke="none" stroke-width="0" stroke-linecap="butt"/><path d="M274.54206,167.14162l-0.23861,-2.86326l13.7198,0.1193l1.90884,2.74396z" fill="#7d7d7d" stroke="none" stroke-width="0" stroke-linecap="butt"/><path d="M301.92201,171.67512l-0.04468,-3.05483l-1.62556,-0.04703l2.42395,-5.58949l-0.03789,-1.21075h2.38606v6.80024l-0.77088,0.03671l0.05506,3.06516z" fill="#5c5c5c" stroke="none" stroke-width="0" stroke-linecap="butt"/></g></g></svg>