<svg version="1.1" xmlns="http://www.w3.org/2000/svg" xmlns:xlink="http://www.w3.org/1999/xlink" width="304.28128" height="81.95522" viewBox="0,0,304.28128,81.95522"><g transform="translate(-87.85936,-134.92239)"><g data-paper-data="{&quot;isPaintingLayer&quot;:true}" fill-rule="nonzero" stroke-linejoin="miter" stroke-miterlimit="10" stroke-dasharray="" stroke-dashoffset="0" style="mix-blend-mode: normal"><path d="M295.32293,216.87762l-9.05945,-0.02372l0.0039,-1.41872l3.77778,0.03537v-11.06263h1.66667v11.06263l3.61111,-0.03738z" fill="#586556" stroke="none" stroke-width="0" stroke-linecap="butt"/><path d="M288.83362,204.99401v-36h4.16667v36z" fill="#3c7430" stroke="none" stroke-width="0" stroke-linecap="butt"/><path d="M288.97027,200.96859l3.8146,-0.04511c0,0 11.19314,-1.5813 11.38535,2.93792c0.29417,6.91607 10.13265,7.84347 9.8922,-0.21264c-0.11159,-3.73887 2.48783,-11.32261 10.44009,-15.9228c10.63627,-6.15282 17.97754,-1.09781 21.80014,-1.11262c7.32459,-0.02837 6.00095,-20.97809 6.00095,-20.97809" fill="none" stroke="#375431" stroke-width="2" stroke-linecap="round"/><path d="M249.32877,206.74036c0,0 -15.35413,6.68562 -21.62009,-1.18697c-7.82219,-9.82785 -6.48686,-22.3034 -6.64651,-25.17224c-0.19719,-3.54345 7.55231,-2.35508 7.55231,-2.35508" fill="none" stroke="#407b33" stroke-width="1.5" stroke-linecap="round"/><path d="M236.59415,190.2266l-0.04382,5.54513l-0.65573,0.00178l-1.57435,-5.55193l1.33582,-2.01469l-0.46191,-2.3803l1.4,-10.4h3.2v14.8z" fill="#8eaea5" stroke="none" stroke-width="0" stroke-linecap="butt"/><path d="M248.49591,209.89114l-4.00757,-18.04947l-5.65932,0.09894l0.13355,-20.54947h11.33333c0,0 12.98508,32.03655 12,34.33333c-1.17297,2.73487 -13.8,4.16667 -13.8,4.16667z" fill="#586556" stroke="none" stroke-width="0" stroke-linecap="butt"/><path d="M342.35898,174.39114v-2.66667h11.16667v2.66667z" fill="#386c2c" stroke="none" stroke-width="0" stroke-linecap="butt"/><path d="M96.04065,172.47446v-27h276v27h-260.27102l-0.13722,9.25l-1.51237,-0.09993l-2.39587,-9.15007z" fill="#407b33" stroke="none" stroke-width="0" stroke-linecap="butt"/><path d="M87.85937,178.22446v-38.6875h8.27778v38.6875z" fill="#4a5347" stroke="none" stroke-width="0" stroke-linecap="butt"/><path d="M370.54065,174.26821v-31l17.27059,-5.31764l4.32941,-0.08235v40.6l-4.27717,0.16832z" fill="#407b33" stroke="none" stroke-width="0" stroke-linecap="butt"/><path d="M387.74065,138.66821v39.6" fill="none" stroke="#79ae6d" stroke-width="1" stroke-linecap="round"/><path d="M101.90165,146.12433v-2.45454l1.27273,-0.09091l0.0909,-8.63432l1.17348,-0.02217l0.00803,8.66262l10.63712,0.0334l0.02914,-2.94808l13.78949,-0.10144l2.54457,3.1009v2.45454z" fill="#1f660f" stroke="none" stroke-width="0" stroke-linecap="butt"/><path d="M117.62892,141.9425l-0.09091,3.27273" fill="none" stroke="#407b33" stroke-width="1" stroke-linecap="round"/><path d="M119.26529,141.9425l-0.09091,3.27273" fill="none" stroke="#407b33" stroke-width="1" stroke-linecap="round"/><path d="M120.90164,141.9425l-0.09091,3.27273" fill="none" stroke="#407b33" stroke-width="1" stroke-linecap="round"/><path d="M122.4471,141.8516l-0.09091,3.27272" fill="none" stroke="#407b33" stroke-width="1" stroke-linecap="round"/><path d="M123.99256,141.8516l-0.09091,3.27272" fill="none" stroke="#407b33" stroke-width="1" stroke-linecap="round"/><path d="M125.4471,141.76069l-0.09091,3.27273" fill="none" stroke="#407b33" stroke-width="1" stroke-linecap="round"/><path d="M126.90164,141.76069l-0.09091,3.27273" fill="none" stroke="#407b33" stroke-width="1" stroke-linecap="round"/><path d="M128.35618,141.76069l-0.09091,3.27273" fill="none" stroke="#407b33" stroke-width="1" stroke-linecap="round"/><path d="M143.55615,172.6235v-26" fill="none" stroke="#375431" stroke-width="4.5" stroke-linecap="round"/><path d="M197.05616,146.6235l0.5,26" fill="none" stroke="#375431" stroke-width="4.5" stroke-linecap="round"/><path d="M229.05616,143.1235l0.5,32.5" fill="none" stroke="#375431" stroke-width="7" stroke-linecap="round"/><path d="M336.05616,146.1235l0.5,26" fill="none" stroke="#375431" stroke-width="4.5" stroke-linecap="round"/><path d="M355.30616,172.1235l-0.5,-26" fill="none" stroke="#375431" stroke-width="1" stroke-linecap="round"/><path d="M369.80616,146.1235l0.5,26" fill="none" stroke="#375431" stroke-width="2" stroke-linecap="round"/><path d="M184.35555,193.06912l-0.01598,-6.2489l2.69465,-2.29185l-0.05507,-2.78845h0.77516l0.11925,11.32919z" fill="#1f660f" stroke="none" stroke-width="0" stroke-linecap="butt"/><path d="M177.91318,175.94663v-4.73044h16v3.47826l-3.59984,0.18145l-0.15892,2.59939c0,0 0.27276,5.48315 -2.77808,5.50677c-3.12543,0.0242 -2.51652,-5.35301 -2.51652,-5.35301z" fill="#375431" stroke="none" stroke-width="0" stroke-linecap="butt"/><path d="M188.64872,180.63682c0,0.67509 -0.61401,1.22236 -1.37143,1.22236c-0.75742,0 -1.37143,-0.54727 -1.37143,-1.22236c0,-0.67509 0.61401,-1.22236 1.37143,-1.22236c0.75742,0 1.37143,0.54727 1.37143,1.22236z" fill="#888888" stroke="none" stroke-width="0" stroke-linecap="butt"/><path d="M249.97225,175.23132c0,0.2116 -0.17745,0.38313 -0.39634,0.38313c-0.21889,0 -0.39634,-0.17153 -0.39634,-0.38313c0,-0.2116 0.17745,-0.38313 0.39634,-0.38313c0.21889,0 0.39634,0.17153 0.39634,0.38313z" fill="#8eaea5" stroke="none" stroke-width="0" stroke-linecap="butt"/><path d="M245.34039,190.51705c0,0.26267 -0.24024,0.47561 -0.53659,0.47561c-0.29635,0 -0.53659,-0.21294 -0.53659,-0.47561c0,-0.26267 0.24024,-0.47561 0.53659,-0.47561c0.29635,0 0.53659,0.21294 0.53659,0.47561z" fill="#8eaea5" stroke="none" stroke-width="0" stroke-linecap="butt"/><path d="M261.5703,205.19912c0,0.34349 -0.27846,0.62195 -0.62195,0.62195c-0.34349,0 -0.62195,-0.27846 -0.62195,-0.62195c0,-0.34349 0.27846,-0.62195 0.62195,-0.62195c0.34349,0 0.62195,0.27846 0.62195,0.62195z" fill="#8eaea5" stroke="none" stroke-width="0" stroke-linecap="butt"/><path d="M175.82043,146.15819v-1.06667h3.55179v1.06667z" fill="#1f660f" stroke="none" stroke-width="0" stroke-linecap="butt"/><path d="M175.19678,145.16771v-2.20952h5.01429v2.20952z" fill="#407b33" stroke="none" stroke-width="0" stroke-linecap="butt"/><path d="M286.83362,176.56067v-5.66667h7.66667v5.66667z" fill="#3c7430" stroke="none" stroke-width="0" stroke-linecap="butt"/></g></g></svg>